# xmcd
#
# Track frame offsets:
# 150
# 19710
# 40327
# 55567
# 72860
# 91315
# 110490
# 124847
# 144212
# 164582
# 180952
# 203892
# 222334
# 244800
#
# Disc length: 3507 seconds
#
# Revision: 0
# Processed by: cddbd v1.5.1PL2 Copyright (c) Steve Scherf et al.
# Submitted via: Audion 3.0.2 (http://www.panic.com/audion/)
#
DISCID=bf0db10e
DTITLE=patricia kaas - dans ma chair
DYEAR=1900
DGENRE=
TTITLE0=quand j'ai peur de tout
TTITLE1=dans ma chair
TTITLE2=chanson simple
TTITLE3=j'ai tout quitte pour toi
TTITLE4=je me souviens de rien
TTITLE5=les lignes de nos mains
TTITLE6=je sais
TTITLE7=je voudrais la connaitre
TTITLE8=fais-moi l'amitie
TTITLE9=l'amour devant la mer
TTITLE10=je compte jusqu'a toi
TTITLE11=sans toi
TTITLE12=don't let me be lonely tonight
TTITLE13=when the night rolls in
EXTD=
EXTT0=
EXTT1=
EXTT2=
EXTT3=
EXTT4=
EXTT5=
EXTT6=
EXTT7=
EXTT8=
EXTT9=
EXTT10=
EXTT11=
EXTT12=
EXTT13=
PLAYORDER=
